<?xml version="1.0" encoding="utf-8"?>
<!-- Generator: Adobe Illustrator 23.0.1, SVG Export Plug-In . SVG Version: 6.00 Build 0)  -->
<svg version="1.1" id="Capa_1" xmlns="http://www.w3.org/2000/svg" xmlns:xlink="http://www.w3.org/1999/xlink" x="0px" y="0px"
	 viewBox="0 0 512 512" style="enable-background:new 0 0 512 512;" xml:space="preserve">
<style type="text/css">
	.st0{fill:#3DAD52;}
	.st1{fill:#F4C892;}
	.st2{fill:#FED9A8;}
	.st3{fill:#F4CE9F;}
	.st4{fill:#4DC168;}
	.st5{fill:#CFCFCF;}
	.st6{fill:#C2C4C6;}
	.st7{fill:#9C9DA0;}
	.st8{fill:#8D8F93;}
	.st9{fill:#FFFFFF;}
	.st10{fill:#4D4D4D;}
	.st11{fill:#353535;}
</style>
<path class="st0" d="M429.7,220.5c0,0,0-0.1,0-0.1C429.7,190.9,351.9,0,256,0S82.3,190.9,82.3,220.4c0,0,0,0.1,0,0.1
	c0,0,0,0.1,0,0.1c0,27.5,117.1,171.9,173.7,171.9c55.4,0,173.7-144.5,173.7-171.9C429.7,220.6,429.7,220.6,429.7,220.5
	C429.7,220.5,429.7,220.5,429.7,220.5z"/>
<g>
	<path class="st1" d="M372,216.6h-19.7v-57.2H372c10.2,0,18.4,8.2,18.4,18.4v20.4C390.4,208.4,382.2,216.6,372,216.6z"/>
	<path class="st1" d="M140,216.6h19.7v-57.2H140c-10.2,0-18.4,8.2-18.4,18.4v20.4C121.6,208.4,129.8,216.6,140,216.6z"/>
</g>
<g>
	<path class="st2" d="M323.2,318.5l-12.4-2.5c-8.8-1.8-15.2-9.5-15.2-18.5v-17.9h-81.4v18.4c0,9-6.4,16.8-15.2,18.5l-10.2,2v68.4
		h134.4L323.2,318.5L323.2,318.5z"/>
	<path class="st2" d="M256,293L256,293c-58.8,0-106.4-47.6-106.4-106.4v-29.9C149.6,98,197.2,50.3,256,50.3l0,0
		c58.8,0,106.4,47.6,106.4,106.4v29.9C362.4,245.4,314.8,293,256,293z"/>
</g>
<path class="st3" d="M256,50.3L256,50.3c-9.6,0-18.9,1.3-27.8,3.7c45.3,12.2,78.6,53.6,78.6,102.7v29.9c0,49.2-33.3,90.5-78.6,102.7
	c8.8,2.4,18.1,3.7,27.8,3.7l0,0c58.8,0,106.4-47.6,106.4-106.4v-29.9C362.4,98,314.8,50.3,256,50.3z"/>
<path class="st4" d="M256,159.9c95.8,0,173.4,33.2,173.7,60.6c0,0,0-0.1,0-0.1C429.7,190.9,351.9,0,256,0S82.3,190.9,82.3,220.4
	c0,0,0,0.1,0,0.1C82.6,193.1,160.2,159.9,256,159.9z"/>
<path class="st0" d="M256,0c-8.4,0-16.7,1.5-24.9,4.2C293.1,24.9,344.5,117.7,367.3,176c38,12.1,62.3,29.2,62.4,44.5
	c0,0,0-0.1,0-0.1C429.7,190.9,351.9,0,256,0z"/>
<path class="st0" d="M490.5,500.4c-4.6-34-23.4-132.6-88-158.5l-73.6-23H183.1l-73.6,23c-64.6,25.9-83.4,124.5-88,158.5
	c-0.8,6.1,4,11.6,10.2,11.6h448.7C486.6,512,491.3,506.5,490.5,500.4z"/>
<path class="st0" d="M490.5,500.4c-4.6-34-23.4-132.6-88-158.5l-73.6-23h-56.7l73.6,23c78.4,31.5,89.3,170.1,89.3,170.1h45.2
	C486.6,512,491.3,506.5,490.5,500.4z"/>
<path class="st5" d="M401.6,315.2H110.4c-9.7,0-17.5,7.8-17.5,17.5v165.9h326.2V332.7C419.1,323,411.3,315.2,401.6,315.2z"/>
<path class="st6" d="M401.6,315.2h-55.5c9.7,0,17.5,7.8,17.5,17.5v165.9h55.5V332.7C419.1,323,411.3,315.2,401.6,315.2z"/>
<path class="st7" d="M429.6,485.6H82.4c-6.6,0-11.9,5.3-11.9,11.9v2.6c0,6.6,5.3,11.9,11.9,11.9h347.2c6.6,0,11.9-5.3,11.9-11.9
	v-2.6C441.5,490.9,436.2,485.6,429.6,485.6z"/>
<path class="st8" d="M429.6,485.6h-43.9V512h43.9c6.6,0,11.9-5.3,11.9-11.9v-2.6C441.5,490.9,436.2,485.6,429.6,485.6z"/>
<circle class="st9" cx="256" cy="407.3" r="24.5"/>
<g>
	<path class="st10" d="M282.5,188c-19.2-7.1-33.6-7.2-53,0l0,0c1.4,2.8,2.1,4.2,3.5,7.1c0.4,0.8,0.8,1.6,1.3,2.3
		c16.5-5.7,27.1-5.7,43.6,0.1C279.7,193.7,280.6,191.8,282.5,188z"/>
	<path class="st10" d="M362.4,186.6v-5.6h-36.6l0,0v7.9c0,0.9,0,1.8,0.1,2.7h36.3C362.3,189.9,362.4,188.3,362.4,186.6z"/>
	<path class="st10" d="M149.6,181.1v5.6c0,1.7,0.1,3.3,0.1,5h36.4v-10.5H149.6z"/>
	<path class="st10" d="M225.5,215.3h-39.4c-4.3,0-7.9-3.5-7.9-7.9V185c0-4.3,3.5-7.9,7.9-7.9h49.1c4.3,0,7.9,3.5,7.9,7.9v12.7
		C243.1,207.4,235.2,215.3,225.5,215.3z"/>
	<path class="st10" d="M286.5,215.3h39.4c4.3,0,7.9-3.5,7.9-7.9V185c0-4.3-3.5-7.9-7.9-7.9h-49.1c-4.3,0-7.9,3.5-7.9,7.9v12.7
		C268.9,207.4,276.8,215.3,286.5,215.3z"/>
</g>
<g>
	<path class="st11" d="M325.9,177.1h-47.7v36.1c2.5,1.3,5.3,2.1,8.3,2.1h39.4c4.3,0,7.9-3.5,7.9-7.9V185
		C333.8,180.7,330.3,177.1,325.9,177.1z"/>
	<path class="st11" d="M235.2,177.1h-47.7v38.2h38c9.7,0,17.6-7.9,17.6-17.6V185C243.1,180.7,239.5,177.1,235.2,177.1z"/>
</g>
</svg>
