<svg height="511pt" viewBox="-64 1 511 511.99988" width="511pt" xmlns="http://www.w3.org/2000/svg"><path d="m244.253906 500.039062c-16.621094 7.972657-34.609375 11.960938-52.589844 11.960938-3.777343 0-7.566406-.179688-11.335937-.535156-14.148437-1.316406-28.128906-5.125-41.253906-11.425782l6.980469-40.230468 61.3125-36.074219 29.90625 36.074219 3.277343 18.878906zm0 0" fill="#7f4a26"/><path d="m347.121094 448.179688c-4.125.679687-8.257813 1.339843-12.402344 1.957031l-39.800781-51.5v56.679687c-62.367188 6.773438-125.566407 7.378906-188.089844 1.824219-23.664063-2.105469-47.230469-5.089844-70.621094-8.960937-31.125-5.160157-45.765625-32.957032-28.101562-53.488282 14.570312-16.933594 29.210937-34.214844 43.914062-51.835937 8.992188-10.761719 17.992188-21.644531 27.011719-32.664063l1.058594-1.664062 62.5625-98.261719 161.640625 99.933594c8.582031 10.476562 17.144531 20.839843 25.683593 31.074219 15.164063 18.179687 30.246094 35.980468 45.242188 53.417968 17.667969 20.53125 3.035156 48.328125-28.097656 53.488282zm0 0" fill="#4dc168"/><path d="m329.976562 341.273438c-2.929687 1.160156-6.121093 2.050781-9.554687 2.617187-86.894531 14.378906-176.742187 14.378906-263.640625 0-1.644531-.273437-3.234375-.617187-4.761719-1.035156 8.992188-10.761719 17.992188-21.644531 27.011719-32.664063l63.621094-99.925781 161.640625 99.933594c8.582031 10.476562 17.144531 20.839843 25.683593 31.074219zm0 0" fill="#3dad52"/><path d="m323.488281 307.261719c-57.058593 9.4375-115.382812 12.683593-173.308593 9.730469l-15.375-61.210938-19.789063 58.636719c-18.484375-1.746094-36.894531-4.132813-55.167969-7.15625-26.394531-4.367188-38.804687-27.933594-23.828125-45.347657 18.179688-21.140624 36.515625-42.921874 54.953125-65.328124 4.898438-5.957032 9.808594-11.960938 14.714844-18.011719 3.488281-4.28125 6.972656-8.59375 10.457031-12.925781l63.945313-63.945313 87.105468 63.945313c8.402344 10.445312 16.796876 20.753906 25.160157 30.9375 18.4375 22.40625 36.773437 44.1875 54.953125 65.328124 14.976562 17.414063 2.574218 40.980469-23.820313 45.347657zm0 0" fill="#4dc168"/><g fill="#3dad52"><path d="m292.355469 196.585938c-66.386719 10.90625-135.007813 10.894531-201.382813 0 8.375-10.183594 16.765625-20.492188 25.171875-30.9375l63.945313-63.945313 87.105468 63.945313c8.402344 10.445312 16.796876 20.753906 25.160157 30.9375zm0 0"/><path d="m155.210938 194.566406-52.652344 118.574219c-18.480469-1.75-24.4375-2.855469-42.710938-5.878906-26.394531-4.367188-38.804687-27.933594-23.828125-45.347657 18.179688-21.140624 36.515625-42.921874 54.953125-65.328124 4.898438-5.957032 9.808594-11.960938 14.714844-18.011719zm0 0"/><path d="m106.796875 457.128906c.011719 0 .019531.011719.03125.011719-23.664063-2.105469-47.230469-5.089844-70.621094-8.960937-31.125-5.160157-45.765625-32.957032-28.101562-53.488282 14.570312-16.933594 29.210937-34.214844 43.914062-51.835937 8.992188-10.761719 17.992188-21.644531 27.011719-32.664063l1.058594-1.664062 51.574218 28.882812s-98.398437 98.160156-24.867187 119.71875zm0 0"/></g><path d="m293.210938 161.914062c-47.167969 7.804688-95.476563 10.121094-143.316407 6.90625-.019531 0-.042969 0-.074219-.011718-1.871093-.113282-3.746093-.238282-5.617187-.394532-.011719 0-.011719 0-.023437 0-.679688-.042968-1.371094-.097656-2.050782-.160156-.011718 0-.019531 0-.03125-.007812-17.425781-1.371094-34.777344-3.488282-51.972656-6.332032-20.335938-3.359374-29.898438-21.519531-18.355469-34.933593 31.15625-36.222657 62.898438-74.875 94.777344-115.972657 5.285156-6.824218 14.074219-10.484374 23.097656-10.9570308 10.371094-.5351562 21.054688 3.1093748 27.148438 10.9570308 31.867187 41.097657 63.609375 79.75 94.765625 115.972657 11.542968 13.414062 1.976562 31.574219-18.347656 34.933593zm0 0" fill="#4dc168"/><path d="m189.644531.0507812v.0117188s-96.222656 162.101562-47.546875 168.183594c-17.425781-1.371094-34.777344-3.488282-51.972656-6.332032-20.335938-3.359374-29.898438-21.519531-18.355469-34.933593 31.15625-36.222657 62.898438-74.875 94.777344-115.972657 5.285156-6.824218 14.074219-10.484374 23.097656-10.9570308zm0 0" fill="#3dad52"/><path d="m244.253906 500.039062c-16.621094 7.972657-34.609375 11.960938-52.589844 11.960938-3.777343 0-7.566406-.179688-11.335937-.535156v-32.777344h60.222656zm0 0" fill="#935d35"/><path d="m144.203125 168.414062c2.144531.070313 4.015625.207032 5.617187.394532-1.871093-.113282-3.746093-.238282-5.617187-.394532zm0 0" fill="#3dad52"/></svg>